<svg width="170" height="170" viewBox="0 0 170 170" fill="none" xmlns="http://www.w3.org/2000/svg">
<g clip-path="url(#clip0_52_389)">
<path d="M86.5204 110.974C101.759 110.974 114.113 98.6203 114.113 83.3813C114.113 68.1423 101.759 55.7886 86.5204 55.7886C71.2814 55.7886 58.9277 68.1423 58.9277 83.3813C58.9277 98.6203 71.2814 110.974 86.5204 110.974Z" fill="#FFB6B6"/>
<path d="M70.6804 115.054L69.4338 102.454L94.327 97.7988L109.026 133.588L83.4623 162.987L65.248 127.197L70.6804 115.054Z" fill="#FFB6B6"/>
<path d="M69.0336 108.761L74.4758 109.99C74.4758 109.99 70.1976 96.424 71.6498 95.1288C73.1019 93.8336 76.6603 95.8744 76.6603 95.8744L80.3997 100.067L84.9545 95.4295C84.9545 95.4295 89.8995 89.2807 91.8357 87.5538C93.7718 85.8269 90.6619 79.4169 90.6619 79.4169C90.6619 79.4169 119.387 71.6713 108.698 57.7388C108.698 57.7388 102.432 46.8152 100.391 50.3736C98.35 53.932 95.9166 48.2805 95.9166 48.2805L88.4858 49.6935C88.4858 49.6935 73.8204 41.0464 59.9011 59.5451C45.9819 78.0438 69.0336 108.761 69.0336 108.761H69.0336V108.761Z" fill="#1E1E1E"/>
<path d="M138.416 151.13C123.337 163.356 104.681 170 85.0004 170C67.029 170 49.9108 164.459 35.5918 154.189C35.6174 153.92 35.6429 153.655 35.6653 153.39C36.0456 149.236 36.3843 145.196 36.608 141.848C37.4739 128.845 67.8087 120.179 67.8087 120.179C67.8087 120.179 67.9461 120.316 68.2209 120.556C69.8954 122.026 76.6922 127.356 88.6114 128.845C99.2395 130.174 102.739 123.87 103.796 120.85C104.116 119.93 104.212 119.313 104.212 119.313L135.412 134.047C137.448 136.955 138.244 143.218 138.4 150.258C138.407 150.549 138.413 150.836 138.416 151.13V151.13Z" fill="#2F2E41"/>
<mask id="path-5-inside-1_52_389" fill="white">
<path d="M145.104 24.8961C129.05 8.84191 107.704 0 85 0C62.296 0 40.9502 8.84191 24.8961 24.8961C8.84193 40.9502 0 62.2961 0 85C0 105.723 7.36562 125.314 20.8634 140.784C22.1511 142.263 23.4964 143.704 24.8961 145.104C25.2252 145.433 25.5575 145.762 25.8931 146.082C26.7878 146.948 27.6985 147.795 28.6252 148.616C29.1876 149.117 29.7564 149.61 30.3316 150.092C30.7822 150.472 31.2327 150.846 31.6897 151.214C31.6993 151.223 31.7057 151.23 31.7152 151.236C32.9839 152.259 34.2748 153.243 35.5914 154.189C49.9103 164.459 67.0286 170 85 170C104.681 170 123.336 163.357 138.416 151.131C139.646 150.134 140.851 149.098 142.033 148.028C143.078 147.082 144.101 146.107 145.104 145.104C145.42 144.788 145.737 144.468 146.047 144.145C146.909 143.257 147.747 142.353 148.565 141.436C162.424 125.867 170 106.017 170 85C170 62.2961 161.158 40.9502 145.104 24.8961V24.8961ZM148.357 140.64C147.558 141.547 146.74 142.442 145.903 143.314C144.599 144.673 143.254 145.989 141.864 147.258C141.336 147.743 140.803 148.216 140.263 148.686C139.649 149.22 139.029 149.744 138.4 150.258C133.437 154.333 128.002 157.848 122.189 160.711C119.892 161.845 117.536 162.877 115.127 163.801C105.767 167.392 95.609 169.361 85 169.361C74.7617 169.361 64.9451 167.527 55.8603 164.171C52.1312 162.797 48.5267 161.164 45.066 159.295C44.5579 159.02 44.053 158.742 43.5513 158.458C40.9119 156.962 38.3587 155.33 35.9077 153.566C35.8278 153.508 35.7448 153.447 35.6649 153.39C33.9201 152.131 32.2233 150.805 30.584 149.411C29.9833 148.903 29.3889 148.389 28.8041 147.862C27.8519 147.015 26.9188 146.142 26.0081 145.248C24.2825 143.557 22.6337 141.797 21.0583 139.966C8.33704 125.19 0.639098 105.978 0.639098 85C0.639098 38.4833 38.4833 0.639098 85 0.639098C131.517 0.639098 169.361 38.4833 169.361 85C169.361 106.301 161.427 125.781 148.357 140.64Z"/>
</mask>
<path d="M145.104 24.8961C129.05 8.84191 107.704 0 85 0C62.296 0 40.9502 8.84191 24.8961 24.8961C8.84193 40.9502 0 62.2961 0 85C0 105.723 7.36562 125.314 20.8634 140.784C22.1511 142.263 23.4964 143.704 24.8961 145.104C25.2252 145.433 25.5575 145.762 25.8931 146.082C26.7878 146.948 27.6985 147.795 28.6252 148.616C29.1876 149.117 29.7564 149.61 30.3316 150.092C30.7822 150.472 31.2327 150.846 31.6897 151.214C31.6993 151.223 31.7057 151.23 31.7152 151.236C32.9839 152.259 34.2748 153.243 35.5914 154.189C49.9103 164.459 67.0286 170 85 170C104.681 170 123.336 163.357 138.416 151.131C139.646 150.134 140.851 149.098 142.033 148.028C143.078 147.082 144.101 146.107 145.104 145.104C145.42 144.788 145.737 144.468 146.047 144.145C146.909 143.257 147.747 142.353 148.565 141.436C162.424 125.867 170 106.017 170 85C170 62.2961 161.158 40.9502 145.104 24.8961V24.8961ZM148.357 140.64C147.558 141.547 146.74 142.442 145.903 143.314C144.599 144.673 143.254 145.989 141.864 147.258C141.336 147.743 140.803 148.216 140.263 148.686C139.649 149.22 139.029 149.744 138.4 150.258C133.437 154.333 128.002 157.848 122.189 160.711C119.892 161.845 117.536 162.877 115.127 163.801C105.767 167.392 95.609 169.361 85 169.361C74.7617 169.361 64.9451 167.527 55.8603 164.171C52.1312 162.797 48.5267 161.164 45.066 159.295C44.5579 159.02 44.053 158.742 43.5513 158.458C40.9119 156.962 38.3587 155.33 35.9077 153.566C35.8278 153.508 35.7448 153.447 35.6649 153.39C33.9201 152.131 32.2233 150.805 30.584 149.411C29.9833 148.903 29.3889 148.389 28.8041 147.862C27.8519 147.015 26.9188 146.142 26.0081 145.248C24.2825 143.557 22.6337 141.797 21.0583 139.966C8.33704 125.19 0.639098 105.978 0.639098 85C0.639098 38.4833 38.4833 0.639098 85 0.639098C131.517 0.639098 169.361 38.4833 169.361 85C169.361 106.301 161.427 125.781 148.357 140.64Z" fill="white" fill-opacity="0.34"/>
<path d="M145.104 24.8961H147.104V24.0676L146.518 23.4818L145.104 24.8961ZM24.8961 24.8961L26.3103 26.3103L26.3103 26.3103L24.8961 24.8961ZM20.8634 140.784L22.3719 139.471L22.3703 139.469L20.8634 140.784ZM25.8931 146.082L27.284 144.645L27.2782 144.639L27.2724 144.634L25.8931 146.082ZM28.6252 148.616L29.9566 147.123L29.9517 147.119L28.6252 148.616ZM30.3316 150.092L31.6216 148.564L31.617 148.56L30.3316 150.092ZM31.6897 151.214L33.1039 149.8L33.0274 149.723L32.9431 149.655L31.6897 151.214ZM31.7152 151.236L32.9703 149.679L32.9006 149.623L32.8262 149.573L31.7152 151.236ZM35.5914 154.189L34.4244 155.813L34.4257 155.814L35.5914 154.189ZM138.416 151.131L137.157 149.577L137.156 149.577L138.416 151.131ZM142.033 148.028L140.691 146.545L140.691 146.545L142.033 148.028ZM145.104 145.104L146.518 146.518L146.518 146.518L145.104 145.104ZM146.047 144.145L144.612 142.752L144.604 142.76L146.047 144.145ZM148.565 141.436L150.057 142.767L150.059 142.765L148.565 141.436ZM145.104 24.8961H143.104V25.7245L143.69 26.3103L145.104 24.8961ZM148.357 140.64L149.858 141.961L149.859 141.961L148.357 140.64ZM145.903 143.314L147.346 144.7L147.346 144.699L145.903 143.314ZM141.864 147.258L140.515 145.78L140.509 145.787L141.864 147.258ZM140.263 148.686L138.95 147.177L138.95 147.177L140.263 148.686ZM138.4 150.258L137.134 148.71L137.131 148.712L138.4 150.258ZM122.189 160.711L121.305 158.917L121.304 158.917L122.189 160.711ZM115.127 163.801L114.411 161.933L114.411 161.934L115.127 163.801ZM55.8603 164.171L56.5532 162.295L56.5518 162.295L55.8603 164.171ZM45.066 159.295L44.1145 161.054L44.1155 161.055L45.066 159.295ZM43.5513 158.458L44.5376 156.718L44.5372 156.718L43.5513 158.458ZM35.9077 153.566L34.7392 155.189L34.7394 155.189L35.9077 153.566ZM35.6649 153.39L34.4945 155.012L34.4963 155.013L35.6649 153.39ZM30.584 149.411L31.8792 147.888L31.8756 147.884L30.584 149.411ZM28.8041 147.862L30.1434 146.376L30.1332 146.367L28.8041 147.862ZM26.0081 145.248L27.4097 143.821L27.4077 143.819L26.0081 145.248ZM21.0583 139.966L22.5744 138.661L22.5739 138.661L21.0583 139.966ZM146.518 23.4818C130.089 7.05263 108.234 -2 85 -2V2C107.174 2 128.011 10.6312 143.69 26.3103L146.518 23.4818ZM85 -2C61.7656 -2 39.911 7.05263 23.4818 23.4818L26.3103 26.3103C41.9893 10.6312 62.8265 2 85 2V-2ZM23.4818 23.4818C7.05265 39.911 -2 61.7656 -2 85H2C2 62.8265 10.6312 41.9893 26.3103 26.3103L23.4818 23.4818ZM-2 85C-2 106.205 5.54006 126.264 19.3564 142.099L22.3703 139.469C9.19118 124.364 2 105.24 2 85H-2ZM19.3548 142.097C20.6731 143.611 22.0499 145.086 23.4819 146.518L26.3103 143.69C24.9429 142.322 23.6291 140.915 22.3719 139.471L19.3548 142.097ZM23.4819 146.518C23.8144 146.851 24.1604 147.194 24.5137 147.53L27.2724 144.634C26.9547 144.331 26.636 144.015 26.3103 143.69L23.4819 146.518ZM24.5021 147.519C25.4159 148.403 26.3482 149.27 27.2987 150.113L29.9517 147.119C29.0489 146.319 28.1596 145.492 27.284 144.645L24.5021 147.519ZM27.2938 150.108C27.8713 150.623 28.4555 151.129 29.0462 151.624L31.617 148.56C31.0574 148.09 30.5039 147.612 29.9566 147.123L27.2938 150.108ZM29.0416 151.621C29.5004 152.008 29.9637 152.392 30.4363 152.772L32.9431 149.655C32.5018 149.3 32.0639 148.937 31.6216 148.564L29.0416 151.621ZM30.2755 152.628C30.2759 152.628 30.287 152.639 30.2993 152.652C30.3129 152.665 30.3355 152.687 30.3642 152.712C30.4282 152.77 30.5077 152.835 30.6043 152.899L32.8262 149.573C33.004 149.692 33.1278 149.823 33.1039 149.8L30.2755 152.628ZM30.4601 152.793C31.7567 153.838 33.0771 154.845 34.4244 155.813L36.7583 152.564C35.4726 151.641 34.211 150.679 32.9703 149.679L30.4601 152.793ZM34.4257 155.814C49.0857 166.329 66.6119 172 85 172V168C67.4453 168 50.735 162.589 36.757 152.564L34.4257 155.814ZM85 172C105.138 172 124.239 165.2 139.675 152.684L137.156 149.577C122.434 161.513 104.224 168 85 168V172ZM139.675 152.684C140.935 151.663 142.168 150.604 143.375 149.51L140.691 146.545C139.534 147.593 138.357 148.604 137.157 149.577L139.675 152.684ZM143.375 149.511C144.446 148.542 145.492 147.544 146.518 146.518L143.69 143.69C142.709 144.671 141.71 145.622 140.691 146.545L143.375 149.511ZM146.518 146.518C146.839 146.198 147.166 145.867 147.489 145.531L144.604 142.76C144.308 143.069 144.002 143.378 143.69 143.69L146.518 146.518ZM147.481 145.539C148.366 144.628 149.223 143.702 150.057 142.767L147.072 140.104C146.271 141.003 145.453 141.886 144.612 142.752L147.481 145.539ZM150.059 142.765C164.244 126.83 172 106.506 172 85H168C168 105.527 160.603 124.904 147.071 140.106L150.059 142.765ZM172 85C172 61.7656 162.947 39.9111 146.518 23.4819L143.69 26.3103C159.369 41.9893 168 62.8265 168 85H172ZM147.104 24.8961V24.8961H143.104V24.8961H147.104ZM146.856 139.318C146.073 140.207 145.275 141.08 144.46 141.93L147.346 144.699C148.205 143.804 149.043 142.888 149.858 141.961L146.856 139.318ZM144.46 141.929C143.185 143.258 141.871 144.543 140.516 145.78L143.212 148.735C144.636 147.435 146.013 146.088 147.346 144.7L144.46 141.929ZM140.509 145.787C140 146.255 139.481 146.715 138.95 147.177L141.575 150.195C142.124 149.718 142.673 149.231 143.219 148.729L140.509 145.787ZM138.95 147.177C138.351 147.698 137.747 148.209 137.134 148.71L139.665 151.807C140.312 151.278 140.948 150.741 141.575 150.195L138.95 147.177ZM137.131 148.712C132.286 152.69 126.979 156.122 121.305 158.917L123.073 162.505C129.024 159.573 134.589 155.975 139.669 151.804L137.131 148.712ZM121.304 158.917C119.061 160.025 116.762 161.032 114.411 161.933L115.843 165.668C118.311 164.722 120.722 163.665 123.075 162.504L121.304 158.917ZM114.411 161.934C105.276 165.439 95.3599 167.361 85 167.361V171.361C95.8581 171.361 106.259 169.346 115.844 165.668L114.411 161.934ZM85 167.361C75.0021 167.361 65.42 165.57 56.5532 162.295L55.1674 166.048C64.4703 169.483 74.5212 171.361 85 171.361V167.361ZM56.5518 162.295C52.9128 160.954 49.3948 159.36 46.0165 157.535L44.1155 161.055C47.6586 162.969 51.3497 164.641 55.1689 166.048L56.5518 162.295ZM46.0175 157.536C45.518 157.266 45.0251 156.994 44.5376 156.718L42.565 160.198C43.0809 160.49 43.5978 160.775 44.1145 161.054L46.0175 157.536ZM44.5372 156.718C41.9597 155.257 39.4675 153.663 37.076 151.942L34.7394 155.189C37.2499 156.996 39.864 158.667 42.5654 160.198L44.5372 156.718ZM37.0763 151.943C37.0398 151.916 37.002 151.889 36.9607 151.859C36.9205 151.83 36.8768 151.798 36.8334 151.767L34.4963 155.013C34.5328 155.039 34.5706 155.067 34.6119 155.097C34.6521 155.126 34.6958 155.157 34.7392 155.189L37.0763 151.943ZM36.8352 151.768C35.1319 150.539 33.4768 149.245 31.8792 147.888L29.2888 150.935C30.9698 152.364 32.7084 153.723 34.4945 155.012L36.8352 151.768ZM31.8756 147.884C31.2862 147.386 30.7084 146.886 30.1434 146.376L27.4649 149.347C28.0694 149.892 28.6804 150.421 29.2925 150.939L31.8756 147.884ZM30.1332 146.367C29.2058 145.542 28.2969 144.693 27.4097 143.821L24.6064 146.674C25.5407 147.592 26.498 148.487 27.4751 149.356L30.1332 146.367ZM27.4077 143.819C25.7232 142.169 24.1131 140.45 22.5744 138.661L19.5422 141.27C21.1542 143.144 22.8419 144.946 24.6085 146.676L27.4077 143.819ZM22.5739 138.661C10.1522 124.233 2.6391 105.48 2.6391 85H-1.3609C-1.3609 106.477 6.52185 126.147 19.5426 141.271L22.5739 138.661ZM2.6391 85C2.6391 39.5878 39.5879 2.6391 85 2.6391V-1.3609C37.3787 -1.3609 -1.3609 37.3787 -1.3609 85H2.6391ZM85 2.6391C130.412 2.6391 167.361 39.5878 167.361 85H171.361C171.361 37.3787 132.621 -1.3609 85 -1.3609V2.6391ZM167.361 85C167.361 105.795 159.617 124.81 146.855 139.319L149.859 141.961C163.236 126.752 171.361 106.807 171.361 85H167.361Z" fill="white" fill-opacity="0.34" mask="url(#path-5-inside-1_52_389)"/>
</g>
<defs>
<clipPath id="clip0_52_389">
<rect width="170" height="170" fill="white"/>
</clipPath>
</defs>
</svg>
