<svg width="67" height="33" viewBox="0 0 67 33" fill="none" xmlns="http://www.w3.org/2000/svg">
<path d="M66.7489 20.9016C57.0803 28.7406 45.119 33.0002 32.5 33.0002C20.9771 33.0002 10.0013 29.4474 0.820312 22.8624C0.836708 22.6903 0.853101 22.5202 0.867445 22.3502C1.11126 19.6866 1.32844 17.0968 1.47185 14.9496C2.0271 6.61277 21.477 1.05623 21.477 1.05623C21.477 1.05623 21.5651 1.14433 21.7414 1.29799C22.815 2.24047 27.1729 5.65799 34.8152 6.61277C41.6297 7.46509 43.8733 3.42267 44.5514 1.48648C44.7563 0.896408 44.8178 0.500977 44.8178 0.500977L64.823 9.94832C66.1281 11.8128 66.6383 15.8286 66.7387 20.3423C66.7428 20.5287 66.7469 20.7131 66.7489 20.9016V20.9016Z" fill="#2F2E41"/>
</svg>
