<svg width="37" height="41" viewBox="0 0 37 41" fill="none" xmlns="http://www.w3.org/2000/svg">
<path d="M9.26295 39.7347L12.7524 40.5231C12.7524 40.5231 10.0093 31.8247 10.9404 30.9943C11.8715 30.1638 14.153 31.4723 14.153 31.4723L16.5506 34.1604L19.4711 31.187C19.4711 31.187 22.6417 27.2446 23.8831 26.1373C25.1245 25.0301 23.1305 20.9201 23.1305 20.9201C23.1305 20.9201 41.5482 15.9538 34.695 7.02066C34.695 7.02066 30.6769 0.016688 29.3684 2.29827C28.06 4.57986 26.4997 0.956236 26.4997 0.956236L21.7353 1.86224C21.7353 1.86224 12.3321 -3.68209 3.40745 8.17883C-5.51724 20.0398 9.26295 39.7347 9.26295 39.7347H9.26295V39.7347Z" fill="#1E1E1E"/>
</svg>
